# xmcd
#
# Track frame offsets: 
#        150
#        12762
#        29122
#        41431
#        55011
#        67839
#        78570
#        91524
#        101621
#        117800
#        129430
#        143394
#        158644
#        171678
#
# Disc length: 2533 seconds
#
# Revision: 0
# Processed by: cddbd v1.4PL0 Copyright (c) Steve Scherf et al.
# Submitted via: ExactAudioCopy v0.95a3
#
DISCID=a709e30e
DTITLE=Uncle Bill - Heartbreak Train
DYEAR=2000
DGENRE=Bluegrass
TTITLE0=Heartbreak train
TTITLE1=Lower than lonesome
TTITLE2=Moonshiner
TTITLE3=Things we said today
TTITLE4=Magpie
TTITLE5=Home of the blues
TTITLE6=High dry and lonesome
TTITLE7=My heart's beaten
TTITLE8=Bittersweet
TTITLE9=Raining in my heart
TTITLE10=Learning the language
TTITLE11=Real wild child
TTITLE12=Sounds of goodbye
TTITLE13=Friday on my mind
EXTD=
EXTT0=
EXTT1=
EXTT2=
EXTT3=
EXTT4=
EXTT5=
EXTT6=
EXTT7=
EXTT8=
EXTT9=
EXTT10=
EXTT11=
EXTT12=
EXTT13=
PLAYORDER=
